<?xml version="1.0" encoding="UTF-8"?><svg id="_レイヤー_1" xmlns="http://www.w3.org/2000/svg" width="33" height="100" viewBox="0 0 33 100"><defs><style>.cls-1{fill:#fff;}.cls-2{fill:#353535;}</style></defs><rect class="cls-1" x="1.22" y="1.51" width="30.55" height="96.98" rx="1.48" ry="1.48"/><path class="cls-2" d="M29.36,100H3.64c-2.01,0-3.64-2.01-3.64-4.48V4.48C0,2.01,1.63,0,3.64,0h25.72c2.01,0,3.64,2.01,3.64,4.48v91.04c0,2.47-1.63,4.48-3.64,4.48ZM3.64,3.02c-.66,0-1.19.66-1.19,1.46v91.04c0,.81.53,1.46,1.19,1.46h25.72c.66,0,1.19-.66,1.19-1.46V4.48c0-.81-.53-1.46-1.19-1.46H3.64Z"/></svg>