<?xml version="1.0" encoding="UTF-8"?>
<svg id="_レイヤー_1" data-name="レイヤー 1" xmlns="http://www.w3.org/2000/svg" viewBox="0 0 32.16 34.1">
  <defs>
    <style>
      .cls-1 {
        fill: #fff;
      }

      .cls-2 {
        fill: #353535;
      }
    </style>
  </defs>
  <g>
    <g>
      <rect class="cls-1" x="20.43" y="8.56" width="8.1" height="16.53" rx="1.42" ry="1.42"/>
      <path class="cls-2" d="M27.11,25.84h-5.26c-1.2,0-2.17-.97-2.17-2.17v-13.7c0-1.2.97-2.17,2.17-2.17h5.26c1.2,0,2.17.97,2.17,2.17v13.7c0,1.2-.97,2.17-2.17,2.17ZM21.85,9.31c-.37,0-.67.3-.67.67v13.7c0,.37.3.67.67.67h5.26c.37,0,.67-.3.67-.67v-13.7c0-.37-.3-.67-.67-.67h-5.26Z"/>
    </g>
    <g>
      <rect class="cls-1" x="28.53" y="8.56" width="2.89" height="16.53" rx=".57" ry=".57"/>
      <path class="cls-2" d="M30.85,25.84h-1.75c-.73,0-1.32-.59-1.32-1.32v-15.4c0-.73.59-1.32,1.32-1.32h1.75c.73,0,1.32.59,1.32,1.32v15.4c0,.73-.59,1.32-1.32,1.32ZM29.28,24.34h1.39v-15.03h-1.39v15.03Z"/>
    </g>
  </g>
  <g>
    <path class="cls-1" d="M2.23.75h19.22c.82,0,1.48.66,1.48,1.48v29.64c0,.82-.66,1.48-1.48,1.48H2.23c-.82,0-1.48-.66-1.48-1.48V2.23c0-.82.66-1.48,1.48-1.48Z"/>
    <path class="cls-2" d="M21.45,34.1H2.23c-1.23,0-2.23-1-2.23-2.23V2.23C0,1,1,0,2.23,0h19.22c1.23,0,2.23,1,2.23,2.23v29.64c0,1.23-1,2.23-2.23,2.23ZM2.23,1.5c-.4,0-.73.33-.73.73v29.64c0,.4.33.73.73.73h19.22c.4,0,.73-.33.73-.73V2.23c0-.4-.33-.73-.73-.73H2.23Z"/>
  </g>
</svg>