<?xml version="1.0" encoding="UTF-8"?><svg id="_レイヤー_1" xmlns="http://www.w3.org/2000/svg" width="56" height="56" viewBox="0 0 56 56"><defs><style>.cls-1{fill:#fff;}.cls-2{fill:#353535;}</style></defs><rect class="cls-1" x="1.61" y="11.05" width="52.79" height="43.31" rx="1.42" ry="1.42"/><path class="cls-2" d="M51.36,56H4.64c-2.56,0-4.64-2.12-4.64-4.74V14.15c0-2.61,2.08-4.74,4.64-4.74h46.72c2.56,0,4.64,2.12,4.64,4.74v37.12c0,2.61-2.08,4.74-4.64,4.74ZM4.64,12.69c-.79,0-1.43.65-1.43,1.46v37.12c0,.8.64,1.46,1.43,1.46h46.72c.79,0,1.43-.65,1.43-1.46V14.15c0-.8-.64-1.46-1.43-1.46H4.64Z"/><rect class="cls-1" x="1.61" y="1.64" width="52.79" height="9.41" rx=".57" ry=".57"/><path class="cls-2" d="M53.18,12.69H2.82c-1.55,0-2.82-1.29-2.82-2.88V2.88C0,1.29,1.27,0,2.82,0h50.36c1.56,0,2.82,1.29,2.82,2.88v6.93c0,1.59-1.27,2.88-2.82,2.88ZM3.21,9.41h49.58V3.28H3.21v6.13Z"/></svg>