<?xml version="1.0" encoding="UTF-8"?><svg id="_レイヤー_1" xmlns="http://www.w3.org/2000/svg" width="120" height="160" viewBox="0 0 120 160"><defs><style>.cls-1{fill:#fff;}.cls-2{fill:#353535;}</style></defs><rect class="cls-1" x="8.76" y="11.05" width="47.32" height="43.31" rx="1.42" ry="1.42"/><path class="cls-2" d="M53.35,56H11.48c-2.29,0-4.16-2.12-4.16-4.74V14.15c0-2.61,1.87-4.74,4.16-4.74h41.87c2.29,0,4.16,2.12,4.16,4.74v37.12c0,2.61-1.87,4.74-4.16,4.74ZM11.48,12.69c-.71,0-1.28.65-1.28,1.46v37.12c0,.8.57,1.46,1.28,1.46h41.87c.71,0,1.28-.65,1.28-1.46V14.15c0-.8-.57-1.46-1.28-1.46H11.48Z"/><rect class="cls-1" x="8.76" y="1.64" width="47.32" height="9.41" rx=".57" ry=".57"/><path class="cls-2" d="M54.99,12.69H9.85c-1.39,0-2.53-1.29-2.53-2.88V2.88c0-1.59,1.13-2.88,2.53-2.88h45.14c1.39,0,2.53,1.29,2.53,2.88v6.93c0,1.59-1.13,2.88-2.53,2.88ZM10.2,9.41h44.44V3.28H10.2v6.13Z"/><rect class="cls-1" x="8.76" y="105.64" width="47.32" height="43.31" rx="1.42" ry="1.42"/><path class="cls-2" d="M11.48,104h41.87c2.29,0,4.16,2.12,4.16,4.74v37.12c0,2.61-1.87,4.74-4.16,4.74H11.48c-2.29,0-4.16-2.12-4.16-4.74v-37.12c0-2.61,1.87-4.74,4.16-4.74ZM53.35,147.31c.71,0,1.28-.65,1.28-1.46v-37.12c0-.8-.57-1.46-1.28-1.46H11.48c-.71,0-1.28.65-1.28,1.46v37.12c0,.8.57,1.46,1.28,1.46h41.87Z"/><rect class="cls-1" x="8.76" y="148.95" width="47.32" height="9.41" rx=".57" ry=".57"/><path class="cls-2" d="M9.85,147.31h45.14c1.39,0,2.53,1.29,2.53,2.88v6.93c0,1.59-1.13,2.88-2.53,2.88H9.85c-1.39,0-2.53-1.29-2.53-2.88v-6.93c0-1.59,1.13-2.88,2.53-2.88ZM54.63,150.59H10.2s0,6.13,0,6.13h44.44s0-6.13,0-6.13Z"/><rect class="cls-1" x="64.05" y="11.05" width="47.32" height="43.31" rx="1.42" ry="1.42"/><path class="cls-2" d="M108.65,56h-41.87c-2.29,0-4.16-2.12-4.16-4.74V14.15c0-2.61,1.87-4.74,4.16-4.74h41.87c2.29,0,4.16,2.12,4.16,4.74v37.12c0,2.61-1.87,4.74-4.16,4.74ZM66.77,12.69c-.71,0-1.28.65-1.28,1.46v37.12c0,.8.57,1.46,1.28,1.46h41.87c.71,0,1.28-.65,1.28-1.46V14.15c0-.8-.57-1.46-1.28-1.46h-41.87Z"/><rect class="cls-1" x="64.05" y="1.64" width="47.32" height="9.41" rx=".57" ry=".57"/><path class="cls-2" d="M110.28,12.69h-45.14c-1.39,0-2.53-1.29-2.53-2.88V2.88c0-1.59,1.13-2.88,2.53-2.88h45.14c1.39,0,2.53,1.29,2.53,2.88v6.93c0,1.59-1.13,2.88-2.53,2.88ZM65.49,9.41h44.44V3.28h-44.44v6.13Z"/><rect class="cls-1" x="64.05" y="105.64" width="47.32" height="43.31" rx="1.42" ry="1.42"/><path class="cls-2" d="M66.77,104h41.87c2.29,0,4.16,2.12,4.16,4.74v37.12c0,2.61-1.87,4.74-4.16,4.74h-41.87c-2.29,0-4.16-2.12-4.16-4.74v-37.12c0-2.61,1.87-4.74,4.16-4.74ZM108.65,147.31c.71,0,1.28-.65,1.28-1.46v-37.12c0-.8-.57-1.46-1.28-1.46h-41.87c-.71,0-1.28.65-1.28,1.46v37.12c0,.8.57,1.46,1.28,1.46h41.87Z"/><rect class="cls-1" x="64.05" y="148.95" width="47.32" height="9.41" rx=".57" ry=".57"/><path class="cls-2" d="M65.14,147.31h45.14c1.39,0,2.53,1.29,2.53,2.88v6.93c0,1.59-1.13,2.88-2.53,2.88h-45.14c-1.39,0-2.53-1.29-2.53-2.88v-6.93c0-1.59,1.13-2.88,2.53-2.88ZM109.93,150.59h-44.44s0,6.13,0,6.13h44.44s0-6.13,0-6.13Z"/><rect class="cls-1" x="3.14" y="34.84" width="113.72" height="91.98" rx="1.42" ry="1.42"/><path class="cls-2" d="M110.93,129.02H9.07c-5,0-9.07-2.85-9.07-6.36V39c0-3.51,4.07-6.36,9.07-6.36h101.85c5,0,9.07,2.85,9.07,6.36v83.66c0,3.51-4.07,6.36-9.07,6.36ZM9.07,37.05c-1.54,0-2.79.88-2.79,1.96v83.66c0,1.08,1.25,1.96,2.79,1.96h101.85c1.54,0,2.79-.88,2.79-1.96V39c0-1.08-1.25-1.96-2.79-1.96H9.07Z"/></svg>