<?xml version="1.0" encoding="UTF-8"?><svg id="_レイヤー_1" xmlns="http://www.w3.org/2000/svg" width="90" height="160" viewBox="0 0 90 160"><defs><style>.cls-1{fill:#fff;}.cls-2{fill:#353535;}</style></defs><rect class="cls-1" x="18.61" y="11.05" width="52.79" height="43.31" rx="1.42" ry="1.42"/><path class="cls-2" d="M68.36,56H21.64c-2.56,0-4.64-2.12-4.64-4.74V14.15c0-2.61,2.08-4.74,4.64-4.74h46.72c2.56,0,4.64,2.12,4.64,4.74v37.12c0,2.61-2.08,4.74-4.64,4.74ZM21.64,12.69c-.79,0-1.43.65-1.43,1.46v37.12c0,.8.64,1.46,1.43,1.46h46.72c.79,0,1.43-.65,1.43-1.46V14.15c0-.8-.64-1.46-1.43-1.46H21.64Z"/><rect class="cls-1" x="18.61" y="1.64" width="52.79" height="9.41" rx=".57" ry=".57"/><path class="cls-2" d="M70.18,12.69H19.82c-1.55,0-2.82-1.29-2.82-2.88V2.88c0-1.59,1.27-2.88,2.82-2.88h50.36c1.56,0,2.82,1.29,2.82,2.88v6.93c0,1.59-1.27,2.88-2.82,2.88ZM20.21,9.41h49.58V3.28H20.21v6.13Z"/><rect class="cls-1" x="18.61" y="105.64" width="52.79" height="43.31" rx="1.42" ry="1.42"/><path class="cls-2" d="M21.64,104h46.72c2.56,0,4.64,2.12,4.64,4.74v37.12c0,2.61-2.08,4.74-4.64,4.74H21.64c-2.56,0-4.64-2.12-4.64-4.74v-37.12c0-2.61,2.08-4.74,4.64-4.74ZM68.36,147.31c.79,0,1.43-.65,1.43-1.46v-37.12c0-.8-.64-1.46-1.43-1.46H21.64c-.79,0-1.43.65-1.43,1.46v37.12c0,.8.64,1.46,1.43,1.46h46.72Z"/><rect class="cls-1" x="18.61" y="148.95" width="52.79" height="9.41" rx=".57" ry=".57"/><path class="cls-2" d="M19.82,147.31h50.36c1.55,0,2.82,1.29,2.82,2.88v6.93c0,1.59-1.27,2.88-2.82,2.88H19.82c-1.56,0-2.82-1.29-2.82-2.88v-6.93c0-1.59,1.27-2.88,2.82-2.88ZM69.79,150.59H20.21s0,6.13,0,6.13h49.58s0-6.13,0-6.13Z"/><rect class="cls-1" x="2.36" y="34.84" width="85.29" height="91.98" rx="1.42" ry="1.42"/><path class="cls-2" d="M83.19,129.02H6.81c-3.75,0-6.81-2.85-6.81-6.36V39c0-3.51,3.05-6.36,6.81-6.36h76.39c3.75,0,6.81,2.85,6.81,6.36v83.66c0,3.51-3.05,6.36-6.81,6.36ZM6.81,37.05c-1.16,0-2.09.88-2.09,1.96v83.66c0,1.08.94,1.96,2.09,1.96h76.39c1.16,0,2.09-.88,2.09-1.96V39c0-1.08-.94-1.96-2.09-1.96H6.81Z"/></svg>