<?xml version="1.0" encoding="UTF-8"?><svg id="_レイヤー_1" xmlns="http://www.w3.org/2000/svg" width="220" height="72" viewBox="0 0 220 72"><defs><style>.cls-1{fill:#fff;}.cls-2{fill:#353535;}</style></defs><rect class="cls-1" x="2.11" y="2.25" width="11.85" height="64.02" rx="2" ry="2"/><path class="cls-2" d="M8.33,68.52h-.59c-4.27,0-7.74-3.7-7.74-8.26V8.26C0,3.7,3.47,0,7.74,0h.59c4.27,0,7.74,3.7,7.74,8.26v52.01c0,4.55-3.47,8.26-7.74,8.26ZM7.74,4.5c-1.94,0-3.52,1.68-3.52,3.75v52.01c0,2.07,1.58,3.75,3.52,3.75h.59c1.94,0,3.52-1.68,3.52-3.75V8.26c0-2.07-1.58-3.75-3.52-3.75h-.59Z"/><rect class="cls-1" x="14.48" y="19.9" width="63.68" height="49.85" rx="2" ry="2"/><path class="cls-2" d="M71.14,72H21.5c-5.32,0-9.65-3.7-9.65-8.26V25.9c0-4.55,4.33-8.26,9.65-8.26h49.64c5.32,0,9.65,3.7,9.65,8.26v37.84c0,4.55-4.33,8.26-9.65,8.26ZM21.5,22.15c-2.42,0-4.39,1.68-4.39,3.75v37.84c0,2.07,1.97,3.75,4.39,3.75h49.64c2.42,0,4.39-1.68,4.39-3.75V25.9c0-2.07-1.97-3.75-4.39-3.75H21.5Z"/><rect class="cls-1" x="14.48" y="2.25" width="63.68" height="20.2" rx="2" ry="2"/><path class="cls-2" d="M71.14,24.7H21.5c-5.32,0-9.65-3.7-9.65-8.26v-8.19C11.85,3.7,16.18,0,21.5,0h49.64c5.32,0,9.65,3.7,9.65,8.26v8.19c0,4.55-4.33,8.26-9.65,8.26ZM21.5,4.5c-2.42,0-4.39,1.68-4.39,3.75v8.19c0,2.07,1.97,3.75,4.39,3.75h49.64c2.42,0,4.39-1.68,4.39-3.75v-8.19c0-2.07-1.97-3.75-4.39-3.75H21.5Z"/><rect class="cls-1" x="78.16" y="19.9" width="63.68" height="49.85" rx="2" ry="2"/><path class="cls-2" d="M134.82,72h-49.64c-5.32,0-9.65-3.7-9.65-8.26V25.9c0-4.55,4.33-8.26,9.65-8.26h49.64c5.32,0,9.65,3.7,9.65,8.26v37.84c0,4.55-4.33,8.26-9.65,8.26ZM85.18,22.15c-2.42,0-4.39,1.68-4.39,3.75v37.84c0,2.07,1.97,3.75,4.39,3.75h49.64c2.42,0,4.39-1.68,4.39-3.75V25.9c0-2.07-1.97-3.75-4.39-3.75h-49.64Z"/><rect class="cls-1" x="78.16" y="2.25" width="63.68" height="20.2" rx="2" ry="2"/><path class="cls-2" d="M134.82,24.7h-49.64c-5.32,0-9.65-3.7-9.65-8.26v-8.19c0-4.55,4.33-8.26,9.65-8.26h49.64c5.32,0,9.65,3.7,9.65,8.26v8.19c0,4.55-4.33,8.26-9.65,8.26ZM85.18,4.5c-2.42,0-4.39,1.68-4.39,3.75v8.19c0,2.07,1.97,3.75,4.39,3.75h49.64c2.42,0,4.39-1.68,4.39-3.75v-8.19c0-2.07-1.97-3.75-4.39-3.75h-49.64Z"/><rect class="cls-1" x="206.04" y="2.25" width="11.85" height="64.02" rx="2" ry="2"/><path class="cls-2" d="M212.26,68.52h-.59c-4.27,0-7.74-3.7-7.74-8.26V8.26c0-4.55,3.47-8.26,7.74-8.26h.59c4.27,0,7.74,3.7,7.74,8.26v52.01c0,4.55-3.47,8.26-7.74,8.26ZM211.67,4.5c-1.94,0-3.52,1.68-3.52,3.75v52.01c0,2.07,1.58,3.75,3.52,3.75h.59c1.94,0,3.52-1.68,3.52-3.75V8.26c0-2.07-1.58-3.75-3.52-3.75h-.59Z"/><rect class="cls-1" x="141.84" y="19.9" width="63.68" height="49.85" rx="2" ry="2"/><path class="cls-2" d="M198.5,72h-49.64c-5.32,0-9.65-3.7-9.65-8.26V25.9c0-4.55,4.33-8.26,9.65-8.26h49.64c5.32,0,9.65,3.7,9.65,8.26v37.84c0,4.55-4.33,8.26-9.65,8.26ZM148.86,22.15c-2.42,0-4.39,1.68-4.39,3.75v37.84c0,2.07,1.97,3.75,4.39,3.75h49.64c2.42,0,4.39-1.68,4.39-3.75V25.9c0-2.07-1.97-3.75-4.39-3.75h-49.64Z"/><rect class="cls-1" x="141.84" y="2.25" width="63.68" height="20.2" rx="2" ry="2"/><path class="cls-2" d="M198.5,24.7h-49.64c-5.32,0-9.65-3.7-9.65-8.26v-8.19c0-4.55,4.33-8.26,9.65-8.26h49.64c5.32,0,9.65,3.7,9.65,8.26v8.19c0,4.55-4.33,8.26-9.65,8.26ZM148.86,4.5c-2.42,0-4.39,1.68-4.39,3.75v8.19c0,2.07,1.97,3.75,4.39,3.75h49.64c2.42,0,4.39-1.68,4.39-3.75v-8.19c0-2.07-1.97-3.75-4.39-3.75h-49.64Z"/></svg>