<?xml version="1.0" encoding="UTF-8"?><svg id="_レイヤー_1" xmlns="http://www.w3.org/2000/svg" width="80" height="72" viewBox="0 0 80 72"><defs><style>.cls-1{fill:#fff;}.cls-2{fill:#353535;}</style></defs><rect class="cls-1" x="2.13" y="2.25" width="11.95" height="64.02" rx="2" ry="2"/><path class="cls-2" d="M8.41,68.52h-.6c-4.3,0-7.81-3.7-7.81-8.26V8.26C0,3.7,3.5,0,7.81,0h.6c4.3,0,7.81,3.7,7.81,8.26v52.01c0,4.55-3.5,8.26-7.81,8.26ZM7.81,4.5c-1.96,0-3.55,1.68-3.55,3.75v52.01c0,2.07,1.59,3.75,3.55,3.75h.6c1.96,0,3.55-1.68,3.55-3.75V8.26c0-2.07-1.59-3.75-3.55-3.75h-.6Z"/><rect class="cls-1" x="65.92" y="2.25" width="11.95" height="64.02" rx="2" ry="2"/><path class="cls-2" d="M72.19,68.52h-.6c-4.3,0-7.81-3.7-7.81-8.26V8.26c0-4.55,3.5-8.26,7.81-8.26h.6c4.3,0,7.81,3.7,7.81,8.26v52.01c0,4.55-3.5,8.26-7.81,8.26ZM71.6,4.5c-1.96,0-3.55,1.68-3.55,3.75v52.01c0,2.07,1.59,3.75,3.55,3.75h.6c1.96,0,3.55-1.68,3.55-3.75V8.26c0-2.07-1.59-3.75-3.55-3.75h-.6Z"/><rect class="cls-1" x="14.08" y="19.9" width="51.49" height="49.85" rx="2" ry="2"/><path class="cls-2" d="M59.89,72H19.76c-4.3,0-7.81-3.7-7.81-8.26V25.9c0-4.55,3.5-8.26,7.81-8.26h40.13c4.3,0,7.81,3.7,7.81,8.26v37.84c0,4.55-3.5,8.26-7.81,8.26ZM19.76,22.15c-1.96,0-3.55,1.68-3.55,3.75v37.84c0,2.07,1.59,3.75,3.55,3.75h40.13c1.96,0,3.55-1.68,3.55-3.75V25.9c0-2.07-1.59-3.75-3.55-3.75H19.76Z"/><rect class="cls-1" x="14.08" y="2.25" width="51.49" height="20.2" rx="2" ry="2"/><path class="cls-2" d="M59.89,24.7H19.76c-4.3,0-7.81-3.7-7.81-8.26v-8.19C11.95,3.7,15.46,0,19.76,0h40.13c4.3,0,7.81,3.7,7.81,8.26v8.19c0,4.55-3.5,8.26-7.81,8.26ZM19.76,4.5c-1.96,0-3.55,1.68-3.55,3.75v8.19c0,2.07,1.59,3.75,3.55,3.75h40.13c1.96,0,3.55-1.68,3.55-3.75v-8.19c0-2.07-1.59-3.75-3.55-3.75H19.76Z"/></svg>