<?xml version="1.0" encoding="UTF-8"?><svg id="_レイヤー_1" xmlns="http://www.w3.org/2000/svg" width="130" height="72" viewBox="0 0 130 72"><defs><style>.cls-1{fill:#fff;}.cls-2{fill:#353535;}</style></defs><rect class="cls-1" x="2.11" y="2.25" width="11.85" height="64.02" rx="2" ry="2"/><path class="cls-2" d="M8.33,68.52h-.59c-4.27,0-7.74-3.7-7.74-8.26V8.26C0,3.7,3.47,0,7.74,0h.59c4.27,0,7.74,3.7,7.74,8.26v52.01c0,4.55-3.47,8.26-7.74,8.26ZM7.74,4.5c-1.94,0-3.52,1.68-3.52,3.75v52.01c0,2.07,1.58,3.75,3.52,3.75h.59c1.94,0,3.52-1.68,3.52-3.75V8.26c0-2.07-1.58-3.75-3.52-3.75h-.59Z"/><rect class="cls-1" x="13.96" y="19.9" width="51.04" height="49.85" rx="2" ry="2"/><path class="cls-2" d="M59.37,72H19.59c-4.27,0-7.74-3.7-7.74-8.26V25.9c0-4.55,3.47-8.26,7.74-8.26h39.79c4.27,0,7.74,3.7,7.74,8.26v37.84c0,4.55-3.47,8.26-7.74,8.26ZM19.59,22.15c-1.94,0-3.52,1.68-3.52,3.75v37.84c0,2.07,1.58,3.75,3.52,3.75h39.79c1.94,0,3.52-1.68,3.52-3.75V25.9c0-2.07-1.58-3.75-3.52-3.75H19.59Z"/><rect class="cls-1" x="13.96" y="2.25" width="51.04" height="20.2" rx="2" ry="2"/><path class="cls-2" d="M59.37,24.7H19.59c-4.27,0-7.74-3.7-7.74-8.26v-8.19C11.85,3.7,15.32,0,19.59,0h39.79c4.27,0,7.74,3.7,7.74,8.26v8.19c0,4.55-3.47,8.26-7.74,8.26ZM19.59,4.5c-1.94,0-3.52,1.68-3.52,3.75v8.19c0,2.07,1.58,3.75,3.52,3.75h39.79c1.94,0,3.52-1.68,3.52-3.75v-8.19c0-2.07-1.58-3.75-3.52-3.75H19.59Z"/><rect class="cls-1" x="65" y="19.9" width="51.04" height="49.85" rx="2" ry="2"/><path class="cls-2" d="M110.42,72h-39.79c-4.27,0-7.74-3.7-7.74-8.26V25.9c0-4.55,3.47-8.26,7.74-8.26h39.79c4.27,0,7.74,3.7,7.74,8.26v37.84c0,4.55-3.47,8.26-7.74,8.26ZM70.63,22.15c-1.94,0-3.52,1.68-3.52,3.75v37.84c0,2.07,1.58,3.75,3.52,3.75h39.79c1.94,0,3.52-1.68,3.52-3.75V25.9c0-2.07-1.58-3.75-3.52-3.75h-39.79Z"/><rect class="cls-1" x="65" y="2.25" width="51.04" height="20.2" rx="2" ry="2"/><path class="cls-2" d="M110.42,24.7h-39.79c-4.27,0-7.74-3.7-7.74-8.26v-8.19c0-4.55,3.47-8.26,7.74-8.26h39.79c4.27,0,7.74,3.7,7.74,8.26v8.19c0,4.55-3.47,8.26-7.74,8.26ZM70.63,4.5c-1.94,0-3.52,1.68-3.52,3.75v8.19c0,2.07,1.58,3.75,3.52,3.75h39.79c1.94,0,3.52-1.68,3.52-3.75v-8.19c0-2.07-1.58-3.75-3.52-3.75h-39.79Z"/><rect class="cls-1" x="116.04" y="2.25" width="11.85" height="64.02" rx="2" ry="2"/><path class="cls-2" d="M122.26,68.52h-.59c-4.27,0-7.74-3.7-7.74-8.26V8.26c0-4.55,3.47-8.26,7.74-8.26h.59c4.27,0,7.74,3.7,7.74,8.26v52.01c0,4.55-3.47,8.26-7.74,8.26ZM121.67,4.5c-1.94,0-3.52,1.68-3.52,3.75v52.01c0,2.07,1.58,3.75,3.52,3.75h.59c1.94,0,3.52-1.68,3.52-3.75V8.26c0-2.07-1.58-3.75-3.52-3.75h-.59Z"/></svg>