<?xml version="1.0" encoding="UTF-8"?>
<svg id="_レイヤー_1" data-name="レイヤー 1" xmlns="http://www.w3.org/2000/svg" viewBox="0 0 24.95 24.95">
  <defs>
    <style>
      .cls-1 {
        fill: #fff;
      }

      .cls-2 {
        fill: #353535;
      }
    </style>
  </defs>
  <rect class="cls-1" x=".75" y=".75" width="23.45" height="23.45" rx="1.42" ry="1.42"/>
  <path class="cls-2" d="M22.78,24.95H2.17c-1.19,0-2.17-.97-2.17-2.17V2.17C0,.97.97,0,2.17,0h20.61c1.19,0,2.17.97,2.17,2.17v20.61c0,1.19-.97,2.17-2.17,2.17ZM2.17,1.5c-.37,0-.67.3-.67.67v20.61c0,.37.3.67.67.67h20.61c.37,0,.67-.3.67-.67V2.17c0-.37-.3-.67-.67-.67H2.17Z"/>
</svg>