<?xml version="1.0" encoding="UTF-8"?>
<svg id="_レイヤー_1" data-name="レイヤー 1" xmlns="http://www.w3.org/2000/svg" viewBox="0 0 19.5 55.18">
  <defs>
    <style>
      .cls-1 {
        fill: #fff;
      }

      .cls-2 {
        fill: #353535;
      }
    </style>
  </defs>
  <path class="cls-1" d="M9.75,54.43c-4.97,0-9-4.03-9-9V9.75C.75,4.78,4.78.75,9.75.75s9,4.03,9,9v35.68c0,4.97-4.03,9-9,9Z"/>
  <path class="cls-2" d="M9.75,55.18c-5.38,0-9.75-4.37-9.75-9.75V9.75C0,4.37,4.37,0,9.75,0s9.75,4.37,9.75,9.75v35.68c0,5.38-4.37,9.75-9.75,9.75ZM9.75,1.5C5.2,1.5,1.5,5.2,1.5,9.75v35.68c0,4.55,3.7,8.25,8.25,8.25s8.25-3.7,8.25-8.25V9.75c0-4.55-3.7-8.25-8.25-8.25Z"/>
</svg>