<?xml version="1.0" encoding="UTF-8"?><svg id="_レイヤー_1" xmlns="http://www.w3.org/2000/svg" width="50" height="150" viewBox="0 0 50 150"><defs><style>.cls-1{fill:#fff;}.cls-2{fill:#353535;}</style></defs><rect class="cls-1" x="1.86" y="2.26" width="46.29" height="145.48" rx="1.48" ry="1.48"/><path class="cls-2" d="M44.49,150H5.51c-3.04,0-5.51-3.01-5.51-6.72V6.72C0,3.01,2.47,0,5.51,0h38.97c3.04,0,5.51,3.01,5.51,6.72v136.56c0,3.71-2.47,6.72-5.51,6.72ZM5.51,4.52c-.99,0-1.8.99-1.8,2.2v136.56c0,1.21.81,2.2,1.8,2.2h38.97c.99,0,1.8-.99,1.8-2.2V6.72c0-1.21-.81-2.2-1.8-2.2H5.51Z"/></svg>